HIERARCHY
ROOT root
{
	OFFSET	0	13.1	24.9
	CHANNELS 6  Xposition Yposition Zposition Xrotation Yrotation Zrotation
	JOINT spine_1
	{
		OFFSET	0	9.99999	0
		CHANNELS 3  Xrotation Yrotation Zrotation
		JOINT spine_2
		{
			OFFSET	0	112	-10
			CHANNELS 3  Xrotation Yrotation Zrotation
			JOINT spine_3
			{
				OFFSET	0	206.5	19.3
				CHANNELS 3  Xrotation Yrotation Zrotation
				JOINT spine_4
				{
					OFFSET	0	110.4	14.6
					CHANNELS 3  Xrotation Yrotation Zrotation
					JOINT neck_1
					{
						OFFSET	0	71.8	-50.3
						CHANNELS 3  Xrotation Yrotation Zrotation
						JOINT neck_2
						{
							OFFSET	0	86.2	-25.8
							CHANNELS 3  Xrotation Yrotation Zrotation
							JOINT head_ee
							{
								OFFSET	0	179.8	-8.7
								CHANNELS 3  Xrotation Yrotation Zrotation
								End Site
								{
									OFFSET	1	0	0
								}
							}
						}
					}
					JOINT left_clavicle
					{
						OFFSET	-43.2	22.4	-70.8
						CHANNELS 3  Xrotation Yrotation Zrotation
						JOINT left_shoulder
						{
							OFFSET	-93.9	-5.79999	48.7
							CHANNELS 3  Xrotation Yrotation Zrotation
							JOINT left_elbow
							{
								OFFSET	-291.4	-30.8	15.2
								CHANNELS 3  Xrotation Yrotation Zrotation
								JOINT left_lowarm_twist
								{
									OFFSET	-110.7	-3.89999	13.6
									CHANNELS 3  Xrotation Yrotation Zrotation
									JOINT left_hand
									{
										OFFSET	-110.7	-3.89999	13.6
										CHANNELS 3  Xrotation Yrotation Zrotation
										JOINT left_ee
										{
											OFFSET	-80.8	-5.10001	12.1
											CHANNELS 3  Xrotation Yrotation Zrotation
											End Site
											{
												OFFSET	1	0	0
											}
										}
									}
								}
							}
						}
					}
					JOINT right_clavicle
					{
						OFFSET	43.2	22.4	-70.8
						CHANNELS 3  Xrotation Yrotation Zrotation
						JOINT right_shoulder
						{
							OFFSET	93.9	-5.79999	48.7
							CHANNELS 3  Xrotation Yrotation Zrotation
							JOINT right_elbow
							{
								OFFSET	291.4	-30.8	15.2
								CHANNELS 3  Xrotation Yrotation Zrotation
								JOINT right_lowarm_twist
								{
									OFFSET	110.7	-3.89999	13.6
									CHANNELS 3  Xrotation Yrotation Zrotation
									JOINT right_hand
									{
										OFFSET	110.7	-3.89999	13.6
										CHANNELS 3  Xrotation Yrotation Zrotation
										JOINT right_ee
										{
											OFFSET	80.8	-5.10001	12.1
											CHANNELS 3  Xrotation Yrotation Zrotation
											End Site
											{
												OFFSET	1	0	0
											}
										}
									}
								}
							}
						}
					}
				}
			}
		}
	}
	JOINT left_hip
	{
		OFFSET	-82.8	-127.5	0.300001
		CHANNELS 3  Xrotation Yrotation Zrotation
		JOINT left_knee
		{
			OFFSET	-28.2	-396.7	2.2
			CHANNELS 3  Xrotation Yrotation Zrotation
			JOINT left_ankle
			{
				OFFSET	-11.7	-411.3	35.4
				CHANNELS 3  Xrotation Yrotation Zrotation
				JOINT left_toes
				{
					OFFSET	0	-60	-88.6
					CHANNELS 3  Xrotation Yrotation Zrotation
					JOINT left_foot_ee
					{
						OFFSET	-22.5	-16.5	-42.2
						CHANNELS 3  Xrotation Yrotation Zrotation
						End Site
						{
							OFFSET	1	0	0
						}
					}
				}
			}
		}
	}
	JOINT right_hip
	{
		OFFSET	82.8	-127.5	0.300001
		CHANNELS 3  Xrotation Yrotation Zrotation
		JOINT right_knee
		{
			OFFSET	28.2	-396.7	2.2
			CHANNELS 3  Xrotation Yrotation Zrotation
			JOINT right_ankle
			{
				OFFSET	11.7	-411.3	35.4
				CHANNELS 3  Xrotation Yrotation Zrotation
				JOINT right_toes
				{
					OFFSET	0	-60	-88.6
					CHANNELS 3  Xrotation Yrotation Zrotation
					JOINT right_foot_ee
					{
						OFFSET	22.5	-16.5	-42.2
						CHANNELS 3  Xrotation Yrotation Zrotation
						End Site
						{
							OFFSET	1	0	0
						}
					}
				}
			}
		}
	}
}
MOTION
Frames: 6
Frame Time: 0.02
3177.02 653.055 -1669.29 -1.80281347918 45.5263802776 9.64274655484 -0.0236546 0.119518 -0.824803 -0.0232926 0.171759 -0.815527 -0.0256483 0.339693 -0.761052 -0.0263918 0.21524 -0.805145 -14.9632 18.1574 6.89411 -15.7187 30.7168 12.8038 -0.0 0.0 -0.0 -0.298435 13.4177 1.09266 -28.2988 -29.7373 79.0698 0.430634 -12.0422 0.0454222 -30.441 -1.99658 3.29311 -0.127 7.854 2.44403 -0.0 0.0 -0.0 5.72399 29.0726 -9.11051 2.42393 25.1211 -64.1784 2.04407 45.3526 -0.854134 4.96281 -0.14823 0.61639 3.21974 -30.6148 -30.4898 0.0 0.0 0.0 25.3913 10.2229 -22.292 -3.06819 0.114112 0.456986 -1.47576 2.50414 0.217881 -16.056 0.0 0.0 -0.0 0.0 -0.0 -14.5139 11.786 2.21624 -8.23161 -0.250383 -1.23741 19.7967 6.56494 2.78445 37.7483 -0.0 -0.0 0.0 0.0 0.0 
3151.05813112 656.822 -1667.69166831 -2.92194304434 44.2328174814 9.82109880876 0.265807 0.11801 -0.658953 0.266034 0.159701 -0.650109 0.264258 0.290005 -0.603361 0.263801 0.191078 -0.641588 -14.4617 17.994 6.97801 -15.1278 30.2556 12.6566 -0.0 0.0 -0.0 -2.2008 13.6417 -1.99864 -23.6473 -30.3521 82.6936 0.492193 -13.7026 0.0591378 -30.0806 -1.9632 3.26115 0.0300974 6.93175 3.08556 -0.0 0.0 -0.0 5.70736 29.2543 -9.05406 0.883986 24.3671 -64.8474 1.97457 44.3621 -0.805114 5.05585 -0.150498 0.628058 3.35856 -30.7669 -31.3972 0.0 0.0 0.0 24.5194 11.7698 -20.2241 -3.26322 0.120536 0.486228 -1.89895 3.69228 0.280081 -13.9935 0.0 0.0 -0.0 0.0 -0.0 -14.9245 15.0109 3.258 -8.53166 -0.256132 -1.28309 18.4005 5.65362 2.59593 37.0267 -0.0 -0.0 0.0 0.0 0.0 
3151.06980149 656.822 -1667.51222128 -2.94180497268 44.6284117832 9.84947099872 0.265807 0.11801 -0.658953 0.266034 0.159701 -0.650109 0.264258 0.290005 -0.603361 0.263801 0.191078 -0.641588 -14.4617 17.994 6.97801 -15.1278 30.2556 12.6566 -0.0 0.0 -0.0 -2.2008 13.6417 -1.99864 -23.6473 -30.3521 82.6936 0.492193 -13.7026 0.0591378 -30.0806 -1.9632 3.26115 0.0300974 6.93175 3.08556 -0.0 0.0 -0.0 5.70736 29.2543 -9.05406 0.883986 24.3671 -64.8474 1.97457 44.3621 -0.805114 5.05585 -0.150498 0.628058 3.35856 -30.7669 -31.3972 0.0 0.0 0.0 24.5194 11.7698 -20.2241 -3.26322 0.120536 0.486228 -1.89895 3.69228 0.280081 -13.9935 0.0 0.0 -0.0 0.0 -0.0 -14.9245 15.0109 3.258 -8.53166 -0.256132 -1.28309 18.4005 5.65362 2.59593 37.0267 -0.0 -0.0 0.0 0.0 0.0 
3151.08433581 656.822 -1667.31145932 -2.96452878624 45.071209853 9.88169165416 0.265807 0.11801 -0.658953 0.266034 0.159701 -0.650109 0.264258 0.290005 -0.603361 0.263801 0.191078 -0.641588 -14.4617 17.994 6.97801 -15.1278 30.2556 12.6566 -0.0 0.0 -0.0 -2.2008 13.6417 -1.99864 -23.6473 -30.3521 82.6936 0.492193 -13.7026 0.0591378 -30.0806 -1.9632 3.26115 0.0300974 6.93175 3.08556 -0.0 0.0 -0.0 5.70736 29.2543 -9.05406 0.883986 24.3671 -64.8474 1.97457 44.3621 -0.805114 5.05585 -0.150498 0.628058 3.35856 -30.7669 -31.3972 0.0 0.0 0.0 24.5194 11.7698 -20.2241 -3.26322 0.120536 0.486228 -1.89895 3.69228 0.280081 -13.9935 0.0 0.0 -0.0 0.0 -0.0 -14.9245 15.0109 3.258 -8.53166 -0.256132 -1.28309 18.4005 5.65362 2.59593 37.0267 -0.0 -0.0 0.0 0.0 0.0 
3125.43590359 657.434 -1668.24549181 -2.24341249675 44.2140495282 8.06749242313 0.380612 0.240153 -0.54017 0.380733 0.274038 -0.523794 0.378202 0.375009 -0.456975 0.378035 0.298133 -0.510465 -14.4903 18.2886 8.62538 -15.0503 29.8497 14.2636 -0.0 0.0 -0.0 -2.49645 12.212 -2.74016 -20.3353 -30.9376 84.5024 0.382349 -10.7252 0.0358911 -30.1715 -1.9716 3.26923 0.387102 6.08363 5.07584 -0.0 0.0 -0.0 5.61191 29.1788 -8.85473 -0.344585 24.767 -65.3856 1.77166 41.2674 -0.66716 3.50368 -0.110203 0.433884 3.47536 -30.8042 -32.1572 0.0 0.0 0.0 24.7163 11.6579 -18.8933 -10.758 0.291303 1.62289 5.63202 6.51405 -0.812198 -11.426 0.0 0.0 -0.0 0.0 -0.0 -16.3185 17.8669 5.30329 -11.6126 -0.301293 -1.75363 18.2878 4.55391 2.57059 32.1599 -0.0 -0.0 0.0 0.0 0.0 
3102.6590148 658.546 -1670.89249196 -1.85226382165 42.6147882532 7.2550817468 0.509673 0.20013 -0.465434 0.509764 0.229341 -0.451756 0.507939 0.315673 -0.396273 0.507806 0.249128 -0.441153 -16.1105 18.3879 9.26134 -16.8181 30.0364 15.3802 -0.0 0.0 -0.0 -4.3913 12.2988 -5.9301 -15.9956 -30.4072 86.8604 0.403001 -11.29 0.0398345 -29.3814 -1.89901 3.19855 0.468115 4.77262 5.08034 -0.0 0.0 -0.0 6.08052 29.1196 -9.88185 -0.511363 25.1743 -66.1124 1.41158 34.9614 -0.444567 3.00212 -0.0960591 0.371376 3.79641 -30.5295 -34.2557 0.0 0.0 0.0 23.3506 13.6622 -17.5917 -11.4181 0.29919 1.72386 9.69467 8.2686 -1.37948 -12.7353 0.0 0.0 -0.0 0.0 -0.0 -17.3976 25.8057 5.63382 -11.7329 -0.302542 -1.77205 12.6146 0.21231 1.79332 38.7482 -0.0 -0.0 0.0 0.0 0.0 
